<?xml version="1.0" standalone="no"?>
<!DOCTYPE svg PUBLIC "-//W3C//DTD SVG 20010904//EN"
 "http://www.w3.org/TR/2001/REC-SVG-20010904/DTD/svg10.dtd">
<svg version="1.0" xmlns="http://www.w3.org/2000/svg"
 width="500.000000pt" height="500.000000pt" viewBox="0 0 500.000000 500.000000"
 preserveAspectRatio="xMidYMid meet">
<metadata>
Created by potrace 1.14, written by Peter Selinger 2001-2017
</metadata>
<g transform="translate(0.000000,500.000000) scale(0.100000,-0.100000)"
fill="#000000" stroke="none">
<path d="M3417 4354 c-1 -1 -39 -4 -85 -7 -45 -3 -86 -8 -90 -11 -4 -2 -25 -7
-47 -10 -136 -22 -317 -99 -460 -197 -79 -54 -94 -66 -182 -152 l-61 -60 -59
50 c-152 132 -352 231 -553 277 -197 44 -411 38 -613 -18 -668 -185 -1063
-868 -892 -1543 67 -264 188 -418 555 -709 211 -168 632 -454 1132 -773 98
-62 267 -172 377 -244 l199 -132 48 43 c50 44 329 262 559 438 72 54 137 104
145 111 8 7 96 76 195 154 581 457 888 752 1019 977 40 70 86 215 106 332 22
129 17 340 -11 469 -80 367 -340 701 -674 869 -89 45 -251 98 -352 117 -72 13
-247 26 -256 19z"/>
</g>
</svg>
